<?xml version="1.0" encoding="UTF-8"?><svg id="a" xmlns="http://www.w3.org/2000/svg" viewBox="0 0 441.43 872.87"><defs><style>.b{fill:#ff889f;}.c{opacity:.22;}</style></defs><g class="c"><circle class="b" cx="192.24" cy="403.26" r="19.9"/><circle class="b" cx="252.06" cy="409.98" r="20.67"/><circle class="b" cx="339.61" cy="340.5" r="18.04"/><circle class="b" cx="308.55" cy="390.7" r="21.53"/><circle class="b" cx="350.97" cy="379.21" r="21.33"/><circle class="b" cx="340.28" cy="428.2" r="24.19"/><circle class="b" cx="289.01" cy="432.4" r="21.09"/><circle class="b" cx="313.07" cy="474.58" r="24.41"/><circle class="b" cx="218.49" cy="442.86" r="23.53"/><circle class="b" cx="222.97" cy="366.31" r="23.36"/><circle class="b" cx="262.51" cy="468.91" r="20.7"/><circle class="b" cx="269.74" cy="374.86" r="18.28"/><circle class="b" cx="297.03" cy="339.57" r="23.06"/><path class="b" d="M256.31,361.04c-4.41-6.77-8.59-13.65-12.05-21.02-5.32-11.32-9.33-23.18-13.03-35.11-5.29-17.05-3.12-44.54-2.63-44.58l22.69-.63c1.18-.03,1.99,1.17,1.49,2.25-2.7,5.84-9.73,22.23-6.4,43.26,1.77,11.15,4.24,22.29,8.43,32.8,3.88,9.72,9.83,20.68,18.5,26.99,3.05,2.22-9.85,6.8-9.85,6.8-2.4-3.59-4.81-7.15-7.16-10.75Z"/><path class="b" d="M232.37,298.48c-7.17-10.79-23.19-14.98-36.38-15.9-15.37-1.08-32.53,.95-47.23,6.53-.21,.08-.41,.16-.62,.24,0,0,14.01,2.45,25.53,8.72,26.76,14.54,58.8,5.08,58.8,5.08"/><path class="b" d="M247.45,308.76s8.64-16.31,32.96-25.71c24.31-9.4,35.8-12.18,35.8-12.18,0,0-21.51,36.7-44.14,41.76-22.63,5.06-25.11,0-25.11,0"/></g><g class="c"><circle class="b" cx="246.87" cy="629.38" r="28.61"/><circle class="b" cx="220.24" cy="711.72" r="29.72"/><circle class="b" cx="77.37" cy="785.25" r="25.93"/><circle class="b" cx="161.52" cy="774.3" r="30.95"/><circle class="b" cx="121.34" cy="823.07" r="30.67"/><circle class="b" cx="191.86" cy="838.09" r="34.78"/><circle class="b" cx="227.73" cy="773.41" r="30.31"/><circle class="b" cx="268.73" cy="829.91" r="35.1"/><circle class="b" cx="283.2" cy="687.22" r="33.84"/><circle class="b" cx="180.27" cy="647.74" r="33.59"/><circle class="b" cx="291.24" cy="760.32" r="29.76"/><circle class="b" cx="163.76" cy="714.08" r="26.28"/><circle class="b" cx="101.36" cy="728.93" r="33.15"/><path class="b" d="M153.61,688.3c-6.25-9.78-12.79-19.33-20.4-28.24-11.68-13.67-24.84-25.96-38.28-37.87-19.2-17.03-56.49-30.47-56.84-29.85l-14.27,29.35c-.74,1.53,.36,3.3,2.06,3.29,9.25-.07,34.89,.42,60.45,17.24,13.56,8.92,26.69,18.75,37.97,30.47,10.44,10.83,21.27,25.13,24.4,40.23,1.1,5.31,14.75-8.88,14.75-8.88-3.28-5.28-6.52-10.54-9.84-15.75Z"/><path class="b" d="M85.84,619.88c-9.89-15.78-5.88-39.25,.72-57.08,7.69-20.78,20.51-42.05,36.52-58,.23-.22,.46-.44,.69-.66,0,0-5.08,19.8-3.71,38.61,3.19,43.67-28.17,80.05-28.17,80.05"/><path class="b" d="M90.37,645.72s-26.49,1.66-53.2,27.94C10.46,699.95,0,713.35,0,713.35c0,0,60.82-6.45,80.86-33.09,20.04-26.65,14.87-32.89,14.87-32.89"/></g><g class="c"><circle class="b" cx="322.82" cy="71.59" r="13.02"/><circle class="b" cx="346" cy="103.41" r="13.52"/><circle class="b" cx="418.18" cy="114.95" r="11.8"/><circle class="b" cx="380.25" cy="122.14" r="14.08"/><circle class="b" cx="404.53" cy="137.52" r="13.95"/><circle class="b" cx="376.18" cy="154.01" r="15.82"/><circle class="b" cx="351.5" cy="131.14" r="13.79"/><circle class="b" cx="341.79" cy="161.37" r="15.97"/><circle class="b" cx="315.31" cy="101.74" r="15.39"/><circle class="b" cx="354.21" cy="70.09" r="15.28"/><circle class="b" cx="322.19" cy="134.48" r="13.54"/><circle class="b" cx="370.75" cy="96.43" r="11.96"/><circle class="b" cx="399.83" cy="94" r="15.08"/><path class="b" d="M371.48,83.84c1.32-5.11,2.79-10.17,4.82-15.1,3.11-7.56,7.06-14.74,11.18-21.79,5.89-10.08,20.1-21.18,20.34-20.96l10.33,10.67c.54,.55,.31,1.48-.42,1.71-4.01,1.28-15.02,5.12-23.69,16.02-4.6,5.78-8.88,11.89-12.1,18.55-2.98,6.16-5.63,13.88-4.85,20.85,.28,2.45-7.63-1.75-7.63-1.75,.67-2.74,1.32-5.48,2.02-8.2Z"/><path class="b" d="M391.08,44.66c2.04-8.23-3.02-17.8-8.4-24.57-6.27-7.89-14.83-15.27-24.01-19.9-.13-.07-.26-.13-.39-.19,0,0,5,7.84,7.07,16.17,4.81,19.33,23.52,30.61,23.52,30.61"/><path class="b" d="M392.78,56.47s11.69-3.04,26.96,4.54c15.27,7.58,21.69,11.89,21.69,11.89,0,0-27.2,5.83-39.64-2.84-12.44-8.68-11.09-12.11-11.09-12.11"/></g><g class="c"><circle class="b" cx="132.16" cy="90.28" r="13.02"/><circle class="b" cx="115.6" cy="126" r="13.52"/><circle class="b" cx="47.04" cy="151.34" r="11.8"/><circle class="b" cx="85.64" cy="151.03" r="14.08"/><circle class="b" cx="64.81" cy="170.84" r="13.95"/><circle class="b" cx="95.83" cy="181.5" r="15.82"/><circle class="b" cx="115.59" cy="154.27" r="13.79"/><circle class="b" cx="131" cy="182.04" r="15.97"/><circle class="b" cx="145.38" cy="118.4" r="15.39"/><circle class="b" cx="101.07" cy="94.91" r="15.28"/><circle class="b" cx="144.99" cy="151.85" r="13.54"/><circle class="b" cx="89.97" cy="123.96" r="11.96"/><circle class="b" cx="60.97" cy="127.23" r="15.08"/><path class="b" d="M86.8,111.76c-2.28-4.76-4.71-9.43-7.66-13.87-4.52-6.82-9.79-13.09-15.2-19.21-7.74-8.75-23.83-16.87-24.03-16.61l-8.06,12.47c-.42,.65-.02,1.51,.75,1.6,4.18,.48,15.73,2.11,26.35,11.11,5.63,4.77,11.02,9.94,15.47,15.85,4.12,5.47,8.22,12.52,8.8,19.51,.2,2.46,7.15-3.2,7.15-3.2-1.19-2.56-2.36-5.12-3.58-7.65Z"/><path class="b" d="M59.96,77.13c-3.6-7.67-.5-18.05,3.46-25.74,4.62-8.96,11.58-17.86,19.69-24.18,.11-.09,.23-.18,.35-.26,0,0-3.38,8.66-3.8,17.23-.96,19.9-17.13,34.6-17.13,34.6"/><path class="b" d="M60.59,89.05s-12.05-.71-25.56,9.69c-13.51,10.4-18.97,15.87-18.97,15.87,0,0,27.82,.44,38.33-10.49,10.52-10.93,8.52-14.03,8.52-14.03"/></g></svg>