<?xml version="1.0" encoding="UTF-8"?><svg id="a" xmlns="http://www.w3.org/2000/svg" viewBox="0 0 465.76 578.53"><defs><style>.b{fill:#ff889f;}.c{opacity:.22;}</style></defs><g class="c"><circle class="b" cx="92.03" cy="435.74" r="22.14"/><circle class="b" cx="153.38" cy="462.6" r="23"/><circle class="b" cx="269.32" cy="417.64" r="20.07"/><circle class="b" cx="219.76" cy="460.74" r="23.95"/><circle class="b" cx="268.63" cy="462.52" r="23.73"/><circle class="b" cx="241.12" cy="511.06" r="26.91"/><circle class="b" cx="185.25" cy="498.61" r="23.46"/><circle class="b" cx="196.91" cy="551.36" r="27.16"/><circle class="b" cx="106.87" cy="486.47" r="26.18"/><circle class="b" cx="136.86" cy="406.61" r="25.99"/><circle class="b" cx="145.06" cy="528.66" r="23.03"/><circle class="b" cx="183.75" cy="431.12" r="20.34"/><circle class="b" cx="224.39" cy="402.61" r="25.66"/><path class="b" d="M174.04,412c-2.45-8.64-4.62-17.33-5.87-26.31-1.92-13.78-2.27-27.71-2.27-41.6,0-19.86,11.37-48.35,11.91-48.24l24.32,6.81c1.26,.35,1.73,1.9,.85,2.88-4.79,5.32-17.67,20.41-21.06,43.85-1.8,12.43-2.85,25.08-1.86,37.63,.91,11.61,3.63,25.22,10.76,34.78,2.51,3.36-12.71,3.98-12.71,3.98-1.37-4.61-2.76-9.19-4.06-13.79Z"/><path class="b" d="M169.22,337.63c-4.06-13.83-19.7-23.56-33.42-28.9-15.98-6.22-34.88-9.72-52.34-8.64-.25,.02-.49,.04-.74,.06,0,0,14.07,7.23,24.26,17.68,23.64,24.27,60.81,24.79,60.81,24.79"/><path class="b" d="M181.86,353.53s14.56-14.48,43.5-16.45c28.93-1.97,42.06-1.14,42.06-1.14,0,0-34.96,31.9-60.68,29.82-25.72-2.08-26.68-8.28-26.68-8.28"/></g><g class="c"><circle class="b" cx="340.15" cy="126.36" r="14.48"/><circle class="b" cx="354.29" cy="167.82" r="15.04"/><circle class="b" cx="427.18" cy="203.88" r="13.13"/><circle class="b" cx="384.51" cy="199.01" r="15.66"/><circle class="b" cx="405.24" cy="223.37" r="15.52"/><circle class="b" cx="369.67" cy="231.54" r="17.6"/><circle class="b" cx="351" cy="199.1" r="15.34"/><circle class="b" cx="330.7" cy="228.02" r="17.76"/><circle class="b" cx="322.23" cy="155.93" r="17.13"/><circle class="b" cx="374" cy="135.12" r="17"/><circle class="b" cx="318.75" cy="192.99" r="15.06"/><circle class="b" cx="382.89" cy="168.56" r="13.3"/><circle class="b" cx="414.59" cy="175.57" r="16.78"/><path class="b" d="M387.82,155.43c3.08-5,6.32-9.89,10.1-14.45,5.8-7.01,12.36-13.34,19.06-19.47,9.58-8.77,28.34-15.88,28.53-15.57l7.46,14.74c.39,.77-.16,1.67-1.01,1.68-4.68,.04-17.65,.49-30.45,9.21-6.79,4.62-13.36,9.7-18.97,15.72-5.19,5.57-10.56,12.89-12.02,20.56-.51,2.69-7.53-4.37-7.53-4.37,1.62-2.7,3.21-5.39,4.85-8.05Z"/><path class="b" d="M421.56,120.26c4.88-8.07,2.66-19.91-.82-28.88-4.06-10.45-10.72-21.11-18.95-29.06-.12-.11-.23-.22-.35-.33,0,0,2.73,9.98,2.19,19.51-1.26,22.12,14.9,40.28,14.9,40.28"/><path class="b" d="M419.48,133.37s13.42,.63,27.15,13.71c13.73,13.09,19.13,19.78,19.13,19.78,0,0-30.83-2.77-41.19-16.09-10.36-13.32-7.79-16.52-7.79-16.52"/></g><g class="c"><circle class="b" cx="131.39" cy="83.36" r="14.48"/><circle class="b" cx="102.02" cy="115.85" r="15.04"/><circle class="b" cx="20.81" cy="120.17" r="13.13"/><circle class="b" cx="61.93" cy="132.57" r="15.66"/><circle class="b" cx="33.27" cy="146.75" r="15.52"/><circle class="b" cx="62.71" cy="168.31" r="17.6"/><circle class="b" cx="92.69" cy="145.88" r="15.34"/><circle class="b" cx="99.9" cy="180.47" r="17.76"/><circle class="b" cx="136.17" cy="117.6" r="17.13"/><circle class="b" cx="96.84" cy="78.02" r="17"/><circle class="b" cx="124.73" cy="153.01" r="15.06"/><circle class="b" cx="75.46" cy="105.23" r="13.3"/><circle class="b" cx="43.57" cy="99.14" r="16.78"/><path class="b" d="M76.12,91.22c-.86-5.81-1.9-11.58-3.56-17.27-2.56-8.73-6.09-17.13-9.82-25.42-5.34-11.84-19.76-25.78-20.05-25.57l-12.68,10.59c-.66,.55-.52,1.6,.27,1.94,4.29,1.88,16.02,7.43,24.34,20.5,4.41,6.93,8.43,14.19,11.21,21.94,2.57,7.17,4.61,16.01,2.92,23.63-.59,2.68,8.65-1.04,8.65-1.04-.42-3.12-.82-6.22-1.28-9.31Z"/><path class="b" d="M59.01,45.58c-1.29-9.34,5.42-19.34,12.17-26.21,7.86-8,18.19-15.16,28.89-19.21,.15-.06,.3-.11,.45-.16,0,0-6.45,8.09-9.72,17.06-7.58,20.82-29.61,31.11-29.61,31.11"/><path class="b" d="M55.75,58.45s-12.57-4.73-30.36,1.87C7.61,66.91,0,70.93,0,70.93c0,0,29.42,9.64,44.19,1.49,14.78-8.15,13.68-12.1,13.68-12.1"/></g></svg>