<?xml version="1.0" encoding="UTF-8"?><svg id="a" xmlns="http://www.w3.org/2000/svg" viewBox="0 0 395.01 495"><defs><style>.b{fill:#ff889f;}</style></defs><circle class="b" cx="331.08" cy="199.82" r="36.33"/><circle class="b" cx="266.37" cy="288.64" r="37.74"/><circle class="b" cx="64.9" cy="320.83" r="32.93"/><circle class="b" cx="170.77" cy="340.91" r="39.3"/><circle class="b" cx="103" cy="383.86" r="38.94"/><circle class="b" cx="182.14" cy="429.88" r="44.16"/><circle class="b" cx="251.01" cy="366.03" r="38.49"/><circle class="b" cx="278.13" cy="450.42" r="44.56"/><circle class="b" cx="352.03" cy="283.99" r="42.96"/><circle class="b" cx="243.46" cy="195.63" r="42.65"/><circle class="b" cx="332.82" cy="375.37" r="37.79"/><circle class="b" cx="197.3" cy="269.14" r="33.37"/><circle class="b" cx="116.13" cy="262.37" r="42.1"/><path class="b" d="M195.25,234.02c-3.67-14.28-7.79-28.38-13.44-42.14-8.68-21.12-19.7-41.14-31.2-60.83-16.44-28.14-56.11-59.12-56.77-58.5l-28.83,29.77c-1.5,1.55-.87,4.12,1.18,4.78,11.19,3.57,41.93,14.3,66.12,44.72,12.83,16.13,24.78,33.18,33.77,51.78,8.31,17.2,15.72,38.74,13.52,58.19-.77,6.84,21.31-4.88,21.31-4.88-1.87-7.66-3.7-15.3-5.65-22.89Z"/><path class="b" d="M140.55,124.65c-5.69-22.96,8.43-49.68,23.45-68.59C181.49,34.04,205.38,13.45,231.01,.53c.36-.18,.73-.36,1.09-.53,0,0-13.96,21.88-19.75,45.12-13.42,53.95-65.66,85.43-65.66,85.43"/><path class="b" d="M135.79,157.63s-32.62-8.48-75.25,12.67C17.92,191.44,0,203.47,0,203.47c0,0,75.93,16.28,110.65-7.94,34.72-24.22,30.95-33.8,30.95-33.8"/></svg>