<?xml version="1.0" encoding="UTF-8"?><svg id="a" xmlns="http://www.w3.org/2000/svg" viewBox="0 0 315.9 437.18"><defs><style>.b{fill:#ff889f;}</style></defs><path class="b" d="M171.52,428.41c27.1-31.34,51.53-63.28,72.61-94.91,27.56-41.35,45.51-75.04,58.21-109.24,12.44-33.5,16.19-62.03,11.79-89.77-6.39-40.28-25.3-73.47-56.2-98.67C222.39,6.85,181.43-4.64,136.16,1.68,89.88,8.15,53.14,31.15,26.97,70.05,.09,110.01-6.74,154.67,6.68,202.76c7.68,27.53,20.2,55.9,39.41,89.3,25.58,44.49,57.77,89.09,98.39,136.36,2.01,2.34,4.63,4.3,7.17,6.21l.16,.12c1.05,.79,2.14,1.61,3.18,2.45h6.04c1.12-.91,2.29-1.78,3.32-2.56,2.54-1.91,5.17-3.88,7.18-6.22Zm-11.81-26.79c-.3,.32-.63,.66-.98,1.04l-.91,.99-.85-1.04c-2-2.46-4-4.89-5.98-7.29l-.09-.1c-4.42-5.37-8.59-10.43-12.75-15.75-31.85-40.78-54.29-73.68-72.76-106.69-13.04-23.31-27.36-51.36-34.7-82.59-11.76-50.06,1.23-93.53,38.6-129.19,20.83-19.87,46.1-31.29,75.13-33.93,43.45-3.95,80.45,10.02,109.96,41.52,24.5,26.15,36.3,57.89,35.09,94.33-.75,22.45-7.95,43.14-14.9,60.42-13.17,32.74-30.75,64.52-53.77,97.17-13.31,18.88-27.57,37.5-41.36,55.5-5.94,7.75-12.08,15.77-18.1,23.76-.48,.64-1.01,1.19-1.63,1.83Z"/><path class="b" d="M158.32,78.96c-.22,0-.44,0-.66,0-43.49,.37-78.7,35.91-78.5,79.21,.21,43.42,35.46,78.75,78.58,78.75h.37c43.41-.2,78.72-35.64,78.71-79,0-21.18-8.36-41.12-23.51-56.15-14.86-14.73-34.37-22.81-55-22.81Zm-.32,131.46c-.22,0-.43,0-.65,0-29-.36-52.31-24.13-51.97-53.01,.17-14.04,5.83-27.2,15.95-37.07,10.04-9.79,23.22-15.07,37.09-14.91,14.25,.19,27.54,5.9,37.42,16.07,9.75,10.04,14.99,23.25,14.76,37.2-.46,28.52-24.06,51.72-52.6,51.72Z"/></svg>