<?xml version="1.0" encoding="UTF-8"?><svg id="a" xmlns="http://www.w3.org/2000/svg" viewBox="0 0 657.32 394.04"><defs><style>.b{fill:#05332c;}.c{fill:#ff889f;}</style></defs><g><path class="b" d="M90.59,329.22c.46,0,.77,.31,.85,.77l.93,5.65c2.09-4.33,5.88-7.2,11.3-7.2s9.52,2.32,11.53,7.51c2.48-4.49,6.81-7.51,12.38-7.51,7.59,0,12.69,4.64,12.69,15.33l.08,18.96c0,.47-.23,.77-.7,.77h-3.56c-.47,0-.77-.31-.77-.77v-19.04c0-7.66-3.4-10.37-8.36-10.37-6.19,0-10.37,5.57-10.6,13.85l.08,15.56c0,.47-.31,.77-.77,.77h-3.48c-.46,0-.77-.31-.77-.77v-19.04c0-7.66-3.41-10.37-8.36-10.37-6.04,0-10.22,6.19-10.53,13.54v15.87c0,.47-.31,.77-.77,.77h-3.48c-.47,0-.77-.31-.77-.77v-32.74c0-.46,.31-.77,.77-.77h2.32Z"/><path class="b" d="M166.66,328.44c10.68,0,17.88,7.2,17.88,17.88s-7.2,17.96-17.88,17.96-17.8-7.28-17.8-17.96,7.2-17.88,17.8-17.88Zm0,30.88c7.74,0,12.93-5.26,12.93-13s-5.18-13-12.93-13-12.92,5.26-12.92,13,5.18,13,12.92,13Z"/><path class="b" d="M190.41,346.32c0-10.68,6.96-17.88,17.34-17.88,6.27,0,10.99,2.63,13.78,7.12v-27.24c0-.39,.31-.7,.77-.7h3.48c.46,0,.77,.31,.77,.7v54.49c0,.39-.31,.7-.77,.7h-2.32c-.39,0-.77-.31-.85-.7l-1.01-5.73c-2.79,4.49-7.59,7.2-13.85,7.2-10.37,0-17.34-7.28-17.34-17.96Zm17.8-13c-7.74,0-12.92,5.26-12.92,13s5.18,13,12.92,13,13.31-5.26,13.31-13-5.57-13-13.31-13Z"/><path class="b" d="M267.1,329.92c.08-.46,.47-.77,.85-.77h2.48c.46,0,.77,.31,.77,.7v32.89c0,.47-.31,.77-.77,.77h-2.55c-.39,0-.77-.31-.77-.7l-.93-5.73c-2.79,4.49-7.51,7.2-13.78,7.2-10.37,0-17.34-7.28-17.34-17.96s6.96-17.88,17.34-17.88c6.27,0,11.07,2.63,13.85,7.12l.85-5.65Zm-14.24,29.41c7.74,0,13.08-5.19,13.31-13-.16-7.82-5.5-13-13.31-13s-12.92,5.26-12.92,13,5.18,13,12.92,13Z"/><path class="b" d="M301.69,380.38v-50.39c0-.46,.31-.77,.77-.77h2.32c.47,0,.77,.31,.85,.77l1.01,5.65c2.79-4.49,7.59-7.2,13.85-7.2,10.37,0,17.34,7.28,17.34,17.96s-6.96,17.88-17.34,17.88c-6.27,0-10.99-2.63-13.78-7.12v23.22c0,.46-.31,.77-.77,.77h-3.48c-.47,0-.77-.31-.77-.77Zm18.34-20.97c7.74,0,12.93-5.26,12.93-13s-5.18-13-12.93-13-13.31,5.26-13.31,13,5.57,13,13.31,13Z"/><path class="b" d="M351.6,362.81c0,.39-.23,.7-.7,.7h-3.48c-.47,0-.77-.31-.77-.7v-54.49c0-.39,.31-.7,.7-.7h3.56c.39,0,.7,.31,.7,.7v54.49Z"/><path class="b" d="M389.06,356.69c-2.25,4.57-6.35,7.58-12.38,7.58-8.2,0-13.78-4.64-13.78-15.33v-18.96c0-.46,.31-.77,.7-.77h3.56c.46,0,.7,.31,.7,.77v19.04c0,7.66,3.87,10.37,9.36,10.37,6.73,0,11.38-6.27,11.69-13.62v-15.79c0-.46,.31-.77,.77-.77h3.48c.47,0,.77,.31,.77,.77v32.82c0,.39-.31,.7-.77,.7h-2.32c-.47,0-.77-.31-.85-.7l-.93-6.11Z"/><path class="b" d="M402.21,359.33l1.63-2.79c.15-.15,.31-.31,.54-.31,.16,0,.31,.08,.47,.15,1.39,.93,5.11,3.02,9.91,3.02s7.82-1.93,7.82-4.88c-.08-3.17-2.79-4.41-8.44-5.88-7.97-2.09-11.22-4.88-11.38-10.37-.16-5.81,4.95-9.98,12.46-9.91,5.49,0,8.9,2.24,10.14,3.17,.31,.23,.39,.7,.23,1.16l-1.47,2.86c-.08,.23-.31,.39-.54,.39-.08,0-.23-.08-.39-.15-1.32-.85-4.33-2.55-8.28-2.55-4.33,0-7.12,1.86-7.12,4.57,0,3.1,2.17,4.33,8.2,5.96,7.66,2.17,11.38,4.64,11.53,10.22,.23,6.19-5.11,10.29-13.08,10.22-6.66,0-10.68-2.63-12.07-3.72-.31-.23-.39-.77-.16-1.16Z"/><path class="b" d="M452.12,359.33l1.63-2.79c.15-.15,.31-.31,.54-.31,.16,0,.31,.08,.47,.15,1.39,.93,5.11,3.02,9.91,3.02s7.82-1.93,7.82-4.88c-.08-3.17-2.79-4.41-8.44-5.88-7.97-2.09-11.22-4.88-11.38-10.37-.16-5.81,4.95-9.98,12.46-9.91,5.49,0,8.9,2.24,10.14,3.17,.31,.23,.39,.7,.23,1.16l-1.47,2.86c-.08,.23-.31,.39-.54,.39-.08,0-.23-.08-.39-.15-1.32-.85-4.33-2.55-8.28-2.55-4.33,0-7.12,1.86-7.12,4.57,0,3.1,2.17,4.33,8.2,5.96,7.66,2.17,11.38,4.64,11.53,10.22,.23,6.19-5.11,10.29-13.08,10.22-6.66,0-10.68-2.63-12.07-3.72-.31-.23-.39-.77-.16-1.16Z"/><path class="b" d="M488.41,312.19c2.32,0,3.79,1.47,3.79,3.79s-1.47,3.95-3.79,3.95-3.95-1.55-3.95-3.95,1.63-3.79,3.95-3.79Zm2.4,50.62c0,.39-.23,.7-.7,.7h-3.48c-.46,0-.77-.31-.77-.7v-32.89c0-.39,.31-.7,.7-.7h3.56c.39,0,.7,.31,.7,.7v32.89Z"/><path class="b" d="M501.1,363.51c-.93,0-1.16-.46-.7-1.24l18.88-28.64h-17.49c-.47,0-.77-.31-.77-.7v-2.94c0-.46,.31-.77,.77-.77h24.69c.93,0,1.24,.54,.7,1.32l-18.81,28.56h18.65c.47,0,.77,.31,.77,.77v2.86c0,.47-.31,.77-.77,.77h-25.93Z"/><path class="b" d="M552.79,359.33c4.33,0,7.9-1.39,10.14-3.87,.23-.23,.47-.31,.62-.31,.23,0,.46,.08,.62,.23l2.48,2.32c.39,.31,.39,.77,.08,1.08-3.17,3.48-8.05,5.5-13.93,5.5-11.15,0-18.65-7.28-18.65-17.96s7.2-17.88,17.8-17.88c11.22,0,17.96,7.2,17.88,19.35,0,.46-.31,.77-.77,.77h-29.88c1.01,6.5,6.19,10.76,13.62,10.76Zm11.92-15.25c-.93-6.5-5.8-10.76-12.77-10.76s-11.84,4.26-12.77,10.76h25.54Z"/></g><path class="b" d="M567.31,251.23c-18.57-12.89-27.34-34.47-31.56-55.71-2.37-11.96-3.13-24.37-6.78-36.05-5.33-17.05-16.79-24.79-32.38-32.22-11.75-5.6-34.66-5.6-34.66-5.6,9.05-7.92,18.75-16.41,18.71-16.38,15.39-12.92,26.92-23.52,34.6-31.82,10-10.81,17.05-29.37,4.64-41.4-4.33-4.19-10.15-6.24-17.46-6.12-7.31,.12-13.25,2.22-17.82,6.32-4,3.59-6.6,7.58-7.77,11.96-.25,.93,.42,1.86,1.38,1.92,4,.23,7.14,1.5,9.42,3.81,2.6,2.64,3.94,6.15,4.01,10.54,.1,6.34-2.35,13.71-7.14,22.24-14.36,25.51-58.49,58.77-62.36,62.15V40.05c0-7.8-6.32-14.13-14.13-14.13h-16.75V246.48c0,7.8,6.32,14.13,14.13,14.13h16.75v-106.37c.09-.31,.19-.57,.28-.75,1.43-2.68,6.67-6.79,15.71-12.32,9.05-5.53,17.79-8.3,26.24-8.3,12.73,0,22.11,6.96,28.12,20.89,6.01,13.92,10.32,29.1,12.94,45.52,.77,4.89,2.56,10.81,3.48,17.31,6.17,44.02,36.61,44.3,55.97,44.3h15.32c1.23,0,1.62-1.65,.52-2.2-4.11-2.05-10.04-5.13-13.4-7.46Z"/><path class="b" d="M252.03,251.23c-18.57-12.89-27.34-34.47-31.56-55.71-2.37-11.96-3.13-24.37-6.78-36.05-5.33-17.05-16.79-24.79-32.38-32.22-11.75-5.6-34.66-5.6-34.66-5.6,9.05-7.92,18.75-16.41,18.71-16.38,15.39-12.92,26.92-23.52,34.6-31.82,10-10.81,17.05-29.37,4.64-41.4-4.33-4.19-10.15-6.24-17.46-6.12-7.31,.12-13.25,2.22-17.82,6.32-4,3.59-6.6,7.58-7.77,11.96-.25,.93,.42,1.86,1.38,1.92,4,.23,7.14,1.5,9.42,3.81,2.6,2.64,3.94,6.15,4.01,10.54,.1,6.34-2.35,13.71-7.14,22.24-14.36,25.51-58.49,58.77-62.36,62.15V40.05c0-7.8-6.32-14.13-14.13-14.13h-16.75V246.48c0,7.8,6.32,14.13,14.13,14.13h16.75v-106.37c.09-.31,.19-.57,.28-.75,1.43-2.68,6.67-6.79,15.71-12.32,9.05-5.53,17.79-8.3,26.24-8.3,12.73,0,22.11,6.96,28.12,20.89,6.01,13.92,10.32,29.1,12.94,45.52,.77,4.89,2.56,10.81,3.48,17.31,6.17,44.02,36.61,44.3,55.97,44.3h15.32c1.23,0,1.62-1.65,.52-2.2-4.11-2.05-10.04-5.13-13.4-7.46Z"/><path class="c" d="M449.11,266.99c-2.61-2.38-5.01-4.52-7.36-6.54-2.34-2.04-4.7-3.82-7.04-5.77-2.37-1.91-4.85-3.77-7.61-5.66-1.37-.96-2.85-1.87-4.34-2.92-1.5-1.04-3.08-2.1-4.78-3.19-1.83-1.18-4.58-2.96-8-5.17-1.66-1.16-3.49-2.44-5.44-3.81-2.13-1.49-4.3-3-6.51-4.54-2.43-1.77-4.82-3.66-7.29-5.52-1.23-.94-2.47-1.88-3.71-2.83-1.25-.94-2.5-1.9-3.7-2.94-2.43-2.04-4.89-4.1-7.38-6.18-1.23-1.06-2.53-2.06-3.73-3.17-1.21-1.11-2.42-2.23-3.64-3.35-2.43-2.25-4.89-4.52-7.37-6.81-2.36-2.41-4.75-4.84-7.16-7.29-1.2-1.23-2.41-2.46-3.62-3.69-1.14-1.3-2.29-2.6-3.44-3.9-2.3-2.62-4.65-5.22-6.95-7.9-2.18-2.77-4.38-5.55-6.59-8.35-1.08-1.41-2.26-2.77-3.28-4.24-1.03-1.47-2.05-2.94-3.09-4.41-1.03-1.47-2.07-2.95-3.1-4.43-1.03-1.49-2.12-2.94-3.02-4.51-1.9-3.09-3.8-6.19-5.71-9.3l-1.43-2.33-1.28-2.42-2.57-4.85c-3.63-6.38-6.42-13.19-9.5-19.87-1.42-3.39-2.62-6.87-3.94-10.31l-1.94-5.16c-.58-1.74-1.07-3.51-1.61-5.27-1.06-3.51-2.13-7.03-3.19-10.53-.89-3.47-1.68-6.94-2.25-10.43-.54-3.48-.99-6.97-1.08-10.41-.13-1.73-.03-3.42-.04-5.13,.15-1.67,.16-3.37,.44-4.99,.38-3.3,1.2-6.43,2.32-9.33,1.07-2.95,2.71-5.5,4.58-7.78l1.47-1.65,1.67-1.44c1.08-1.01,2.3-1.72,3.52-2.43,2.5-1.31,5.23-2.19,8.09-2.48,5.71-.67,11.73,.69,16.99,3.26,5.3,2.55,9.87,6.39,13.21,10.79,1.65,2.22,2.99,4.59,3.97,7.03,.49,1.23,.86,2.61,1.31,3.89,.32,1.33,.64,2.66,.91,3.99,1.9,10.74-.16,21.45-3.91,30.29-1.9,4.44-4.17,8.5-6.76,12.03-2.58,3.56-5.32,6.48-8.36,9.53-5.79,6.02-11.02,11.02-15.31,15.14-4.37,4.04-7.74,7.23-10.14,9.3-2.36,2.1-3.62,3.22-3.62,3.22,0,0-5,4.46-14.17,12.1-4.57,3.83-10.24,8.42-16.8,13.74-6.55,5.34-14.03,11.37-22.03,18.43-7.97,7.06-16.44,15.27-24.28,25.13-.97,1.24-1.95,2.49-2.93,3.75-.49,.61-.98,1.3-1.47,2.01-.48,.71-1,1.39-1.43,2.13-1.87,2.88-3.44,5.96-4.85,9.15-1.42,3.19-2.53,6.54-3.46,9.97-.93,3.44-1.59,6.99-1.94,10.64-.73,7.26-.36,14.94,2.03,22.49,1.19,3.76,2.91,7.48,5.28,10.89,2.36,3.41,5.4,6.48,8.93,8.86,3.52,2.4,7.49,4.09,11.55,5.13,4.05,1.01,8.23,1.34,12.2,1.32,7.72-.01,15.43-.97,23.02-2.45,7.59-1.5,15.07-3.58,22.34-6.18,7.27-2.59,14.42-5.49,21.34-8.79,13.87-6.54,27.11-14.1,39.77-22.02,12.68-7.91,24.83-16.15,36.51-24.29,5.81-4.09,11.55-8.13,17.17-12.1,5.4-3.84,10.7-7.62,15.88-11.31,8.79-6.23,16-11.35,19.6-13.9,13.31-9.4,19.86-16.08,29.42-26.39-13.28,4.63-22.05,8.37-35.52,17.68-3.65,2.52-10.91,7.63-19.71,13.89-5.18,3.69-10.48,7.46-15.87,11.3-5.6,3.95-11.31,7.96-17.1,12.04-11.6,8.09-23.61,16.23-36.05,23.99-12.43,7.78-25.32,15.14-38.65,21.42-6.65,3.18-13.46,5.94-20.33,8.39-6.87,2.46-13.86,4.4-20.87,5.78-7.01,1.36-14.06,2.24-21.02,2.25-3.35,.01-6.5-.25-9.52-.99-2.98-.77-5.74-1.97-8.16-3.61-4.85-3.25-8.22-8.37-10.03-14.14-.92-2.88-1.47-5.91-1.73-8.97-.23-3.07-.16-6.16,.14-9.21,.29-3.05,.85-6.07,1.64-8.98,.78-2.91,1.72-5.76,2.92-8.45,1.19-2.68,2.5-5.28,4.05-7.65,.35-.62,.79-1.17,1.18-1.75,.39-.57,.79-1.15,1.27-1.74,.92-1.17,1.83-2.34,2.73-3.49,7.3-9.19,15.3-16.96,23.01-23.81,7.73-6.83,15.14-12.81,21.66-18.14,6.55-5.32,12.26-9.94,16.89-13.83,9.29-7.74,14.39-12.3,14.39-12.3l3.69-3.28c2.44-2.11,5.89-5.37,10.35-9.49,4.38-4.2,9.73-9.31,15.65-15.46,2.91-2.92,6.37-6.56,9.37-10.72,3.03-4.15,5.7-8.89,7.93-14.09,2.21-5.21,3.92-10.93,4.82-17.06,.89-6.12,.96-12.67-.22-19.3-.33-1.65-.73-3.31-1.14-4.97-.55-1.64-.99-3.27-1.66-4.95-1.34-3.37-3.16-6.57-5.35-9.5-4.42-5.83-10.25-10.67-17.07-13.98-3.41-1.65-7.05-2.96-10.9-3.72-3.84-.77-7.89-1.04-11.98-.56-4.08,.43-8.19,1.7-11.95,3.69-1.84,1.04-3.7,2.19-5.25,3.59l-2.37,2.07-2.12,2.35c-2.69,3.23-4.95,6.89-6.38,10.78-1.5,3.86-2.51,7.86-2.97,11.86-.33,2-.37,3.99-.53,5.99,0,1.98-.1,3.98,.04,5.94,.12,3.96,.61,7.85,1.21,11.72,.63,3.86,1.49,7.67,2.47,11.45,1.1,3.66,2.21,7.32,3.32,10.99,.56,1.83,1.09,3.68,1.69,5.5l2.02,5.39c1.38,3.58,2.64,7.22,4.12,10.76,3.21,6.98,6.13,14.09,9.91,20.74l2.69,5.06,1.34,2.52,1.49,2.43c1.99,3.24,3.97,6.47,5.95,9.69,.95,1.64,2.08,3.15,3.15,4.69,1.08,1.54,2.15,3.08,3.23,4.61,1.07,1.53,2.15,3.06,3.21,4.59,1.06,1.54,2.28,2.94,3.4,4.41,2.3,2.91,4.58,5.8,6.85,8.68,2.38,2.78,4.82,5.48,7.2,8.19,1.2,1.35,2.39,2.7,3.58,4.04,1.25,1.28,2.5,2.56,3.74,3.83,2.49,2.54,4.96,5.05,7.41,7.54,2.56,2.37,5.11,4.72,7.62,7.04,1.26,1.16,2.51,2.31,3.76,3.46,1.24,1.15,2.57,2.19,3.85,3.28,2.57,2.15,5.11,4.28,7.62,6.37,1.24,1.07,2.53,2.06,3.82,3.03,1.28,.98,2.56,1.95,3.82,2.92,2.54,1.92,5.01,3.87,7.51,5.68,2.26,1.58,4.49,3.14,6.69,4.67,2.01,1.4,3.89,2.71,5.6,3.9,3.51,2.24,6.35,4.05,8.23,5.26,1.75,1.11,3.42,2.13,5.02,3.08,1.6,.96,3.21,1.73,4.73,2.51,3.07,1.53,5.96,2.83,8.81,3.99,2.83,1.21,5.76,2.04,8.75,2.95,3,.88,6.12,1.71,9.52,2.58Z"/></svg>