<?xml version="1.0" encoding="UTF-8"?><svg id="a" xmlns="http://www.w3.org/2000/svg" viewBox="0 0 438.62 438.61"><defs><style>.b{fill:#ff889f;}</style></defs><path class="b" d="M220.07,0h-.26c-58.69,0-113.84,22.71-155.31,63.95C22.96,105.26,.06,160.28,0,218.87c-.06,58.63,22.66,113.77,63.98,155.28,41.31,41.51,96.28,64.4,154.77,64.47h.27c58.62,0,113.72-22.73,155.16-64.03,41.51-41.36,64.4-96.43,64.45-155.06C438.72,98.61,340.68,.14,220.07,0Zm-72.62,340.82l59.64-6.44v78.81c-5.06-1.38-10.03-3.85-15.36-7.61-12.6-8.88-22.97-21.56-32.63-39.89-3.17-6.02-6-12.32-9-18.99-.86-1.92-1.74-3.88-2.65-5.88Zm-30.15-17.28l-50.38,18.65c-25.6-31.93-40.05-69.15-42.99-110.71H103.85c1.23,34.19,5.64,64.38,13.44,92.06ZM23.93,207.09c2.86-41.35,17.3-78.56,42.95-110.65l50.37,18.63c-7.88,28.32-12.26,58.48-13.38,92.03H23.93Zm100.59,139.12c7.11,18.56,16.54,39.35,32.22,58.47-27.27-9.32-51.21-23.8-72.81-44.01l40.59-14.46Zm82.65-114.87v79.33l-66.94,7.34c-7.56-26.64-11.72-55.05-12.71-86.68h79.65Zm-59.2-134.22c10.39-25.77,21.54-46.22,40.59-61.76,5.91-4.82,12.01-8.09,18.57-9.94V103.5c-20.11-.57-39.53-2.67-59.16-6.38Zm-63.66-19.56c21.08-19.87,44.89-34.23,72.41-43.65-12.71,15.53-22.81,33.9-31.97,57.93-14.15-3.61-27.44-8.3-40.44-14.28Zm123,50.39v79.17H127.59c.77-30.13,5.01-59.21,12.63-86.54l67.11,7.37Zm24.05-.02l67.01-7.35c7.58,26.78,11.74,55.15,12.69,86.54h-79.69V127.94Zm82.54-36.05c-6.68-17.41-16.23-38.63-32.06-57.99,27.37,9.33,51.19,23.7,72.46,43.65-11.91,5.55-24.92,10.16-40.4,14.33Zm-22.97,5.9l-59.62,6.44V25.34c.32,.13,.64,.25,.96,.37,3.54,1.38,6.88,2.69,9.89,4.37,10.91,6.09,20.15,15.22,28.26,27.93,5.58,8.75,10.48,18.18,14.8,26.5,1.73,3.34,3.14,6.85,4.77,10.92,.31,.77,.62,1.56,.95,2.36Zm20.09,133.72c-.82,30.42-5.07,59.48-12.64,86.48l-66.98-7.31v-79.16h79.62Zm-27.74,171.38c5.14-7.26,10.45-14.77,15.01-22.72,4.5-7.85,8.21-16.01,12.13-24.65,1.35-2.98,2.74-6.03,4.18-9.12l40.08,14.23c-21.78,20.53-45.68,35.03-72.71,44.11,.44-.62,.87-1.24,1.31-1.85Zm-51.97,10.4v-78.19c20.51,.61,40.39,2.74,59.19,6.32-9.14,24.11-19.92,41.94-33.79,55.93-7.89,7.96-16.21,13.18-25.4,15.94Zm183.36-181.94c-2.87,41.56-17.31,78.81-42.97,110.82l-50.34-18.66c7.84-28.19,12.22-58.4,13.38-92.17h79.93Zm.03-24.1h-79.96c-1.21-34.13-5.61-64.34-13.42-92.17l50.37-18.66c25.56,31.82,40.02,69.08,43.01,110.83Z"/></svg>