<?xml version="1.0" encoding="UTF-8"?><svg id="a" xmlns="http://www.w3.org/2000/svg" viewBox="0 0 657.32 394.04"><defs><style>.b{fill:#05332c;}.c{fill:#ff889f;}</style></defs><g><g><path class="b" d="M152.12,130.81l-6.55,.89-15.69,47.07h-2.59l-17.19-47.21-6-.68v-2.39h19.58v2.66l-7.44,.61,13.37,38.48,12.55-38.41-7.1-.68v-2.66h17.06v2.32Z"/><path class="b" d="M194.69,165.33l-.48,12.89h-37.86v-2.46l7.1-.75c.2-6.48,.2-13.1,.2-19.78v-3.75c0-6.62,0-13.3-.2-19.85l-7.1-.75v-2.39h36.5l.48,12.83h-3.34l-1.84-9.82h-18.62c-.2,6.41-.2,13.1-.2,20.06h11.94l1.02-7.37h2.8v17.26h-2.8l-.96-7.16h-12.01c0,7.57,0,14.26,.2,20.88h19.99l1.77-9.82h3.41Z"/><path class="b" d="M218.64,150.39c10.1,4.02,13.64,8.12,13.64,15.01,0,8.66-7.3,13.92-17.26,13.92-5.59,0-10.92-1.84-14.19-3.96l.34-10.23h3.48l1.64,9.01c2.59,1.5,4.91,2.11,8.39,2.11,7.44,0,12.42-3.34,12.42-9.69,0-4.91-2.87-7.37-9.96-10.23l-2.8-1.09c-7.64-3.07-12.48-7.37-12.48-14.53,0-8.53,7.1-13.37,16.1-13.37,5.05,0,8.73,1.5,12.01,3.89l-.34,9.55h-3.62l-1.64-8.66c-2.05-1.23-4.02-1.71-6.55-1.71-6.21,0-10.78,3-10.78,8.87,0,4.98,3.21,7.91,8.66,10.03l2.93,1.09Z"/><path class="b" d="M260.12,131.49c-.21,6.48-.21,13.17-.21,19.99v3.75c0,6.55,0,13.23,.21,19.78l7.85,.75v2.46h-21.76v-2.46l7.91-.75c.14-6.48,.14-13.1,.14-19.78v-3.75c0-6.69,0-13.44-.14-19.99h-12.48l-1.91,9.96h-3.41l.55-12.96h40.39l.68,12.96h-3.41l-1.91-9.96h-12.48Z"/><path class="b" d="M296.08,131.63c-.21,6.48-.21,13.1-.21,19.85v3.75c0,6.55,0,13.23,.21,19.78l7.09,.75v2.46h-20.26v-2.46l7.1-.75c.21-6.48,.21-13.1,.21-19.78v-3.75c0-6.62,0-13.3-.21-19.85l-7.1-.75v-2.39h20.26v2.39l-7.09,.75Z"/><path class="b" d="M358.23,130.88l-6.34,.89-.07,47h-2.25l-30.36-42.09,.07,38.2,7.91,.89v2.46h-17.53v-2.46l6.41-.82,.07-42.57-.61-.89-5.59-.68v-2.32h10.64l28.24,39.5-.07-36.16-7.98-.96v-2.39h17.46v2.39Z"/><path class="b" d="M385.39,128.49c14.46,0,24.01,8.8,24.01,24.9s-10.44,24.83-25.24,24.83h-19.99v-2.46l7.09-.75c.21-6.48,.21-13.23,.21-20.94v-2.46c0-6.75,0-13.44-.21-19.99l-7.09-.75v-2.39h21.22Zm-1.84,46.94c12.62,0,19.31-8.25,19.31-22.04s-6.69-22.1-18.56-22.1h-6.96c-.21,6.55-.21,13.37-.21,20.33v2.46c0,7.71,0,14.6,.21,21.35h6.21Z"/><path class="b" d="M462.55,153.32c0,16.17-10.71,25.99-22.31,25.99s-22.51-9.35-22.51-25.99,10.85-25.99,22.51-25.99,22.31,9.35,22.31,25.99Zm-22.31,22.99c10.64,0,15.69-11.19,15.69-22.99s-5.05-22.92-15.69-22.92-15.83,11.19-15.83,22.92,5.05,22.99,15.83,22.99Z"/><path class="b" d="M532.49,175.77v2.46h-19.72v-2.46l7.5-.75-4.5-13.58h-17.53l-4.43,13.44,7.16,.89v2.46h-16.37v-2.46l6.14-.82,15.76-46.94h3.82l16.03,47.07,6.14,.68Zm-17.67-17.12l-7.85-23.6-7.78,23.6h15.62Z"/><path class="b" d="M167.74,246.52l-.61,13.58h-36.36v-2.46l7.1-.75c.2-6.55,.2-13.17,.2-19.72v-3.82c0-6.75,0-13.37-.2-19.85l-7.1-.75v-2.39h20.26v2.39l-7.1,.75c-.2,6.55-.2,13.24-.2,20.19v4.78c0,5.53,0,12.08,.2,18.56h18.01l2.18-10.51h3.62Z"/><path class="b" d="M186.37,213.5c-.2,6.48-.2,13.1-.2,19.85v3.75c0,6.55,0,13.24,.2,19.79l7.1,.75v2.46h-20.26v-2.46l7.1-.75c.2-6.48,.2-13.1,.2-19.79v-3.75c0-6.62,0-13.3-.2-19.85l-7.1-.75v-2.39h20.26v2.39l-7.1,.75Z"/><path class="b" d="M221.1,210.36c10.37,0,16.03,4.84,16.03,12.01,0,5.32-3.41,10.03-11.67,11.8,9.96,1.3,14.19,6.21,14.19,12.42,0,6.89-5.53,13.51-19.03,13.51h-20.06v-2.46l7.1-.75c.2-6.55,.2-13.17,.2-19.85v-3.75c0-6.55,0-13.23-.2-19.78l-7.1-.75v-2.39h20.54Zm-7.37,2.8c-.2,6.41-.2,12.96-.2,19.78h4.3c9.28,0,13.58-3.41,13.58-10.37s-3.82-9.41-12.14-9.41h-5.53Zm5.53,44.14c9.48,0,14.33-3.82,14.33-10.71s-4.64-10.92-15.28-10.92h-4.78c0,7.98,0,14.94,.2,21.63h5.53Z"/><path class="b" d="M283.12,247.2l-.48,12.89h-37.86v-2.46l7.1-.75c.2-6.48,.2-13.1,.2-19.79v-3.75c0-6.62,0-13.3-.2-19.85l-7.1-.75v-2.39h36.5l.48,12.83h-3.34l-1.84-9.82h-18.62c-.2,6.41-.2,13.1-.2,20.06h11.94l1.02-7.37h2.8v17.26h-2.8l-.96-7.16h-12.01c0,7.57,0,14.26,.2,20.88h19.99l1.77-9.82h3.41Z"/><path class="b" d="M332.92,257.64v2.46c-1.23,.34-3,.68-5.25,.68-4.43,0-6.21-1.23-7.03-4.3l-3.41-12.28c-1.57-5.94-3.96-7.23-10.23-7.23h-4.57c0,7.03,0,13.51,.21,19.92l7.09,.75v2.46h-20.26v-2.46l7.09-.75c.21-6.48,.21-13.1,.21-19.79v-3.75c0-6.62,0-13.3-.21-19.85l-7.09-.75v-2.39h20.33c11.12,0,17.6,4.71,17.6,13.03,0,6-4.3,11.19-12.48,12.69,4.23,.96,6.48,3.48,8.19,8.87l3.68,12.08,6.14,.61Zm-23.74-23.4c7.98,0,12.28-4.64,12.28-10.92s-3.68-10.17-11.8-10.17h-7.03c-.21,6.55-.21,13.17-.21,21.08h6.75Z"/><path class="b" d="M358.92,210.36c14.46,0,24.01,8.8,24.01,24.9s-10.44,24.83-25.24,24.83h-19.99v-2.46l7.09-.75c.21-6.48,.21-13.24,.21-20.94v-2.46c0-6.75,0-13.44-.21-19.99l-7.09-.75v-2.39h21.22Zm-1.84,46.94c12.62,0,19.31-8.25,19.31-22.04s-6.69-22.1-18.56-22.1h-6.96c-.21,6.55-.21,13.37-.21,20.33v2.46c0,7.71,0,14.6,.21,21.35h6.21Z"/><path class="b" d="M431.37,257.64v2.46h-19.72v-2.46l7.5-.75-4.5-13.58h-17.53l-4.43,13.44,7.16,.89v2.46h-16.37v-2.46l6.14-.82,15.76-46.94h3.82l16.03,47.07,6.14,.68Zm-17.67-17.12l-7.85-23.6-7.78,23.6h15.62Z"/><path class="b" d="M456.08,210.36c14.46,0,24.01,8.8,24.01,24.9s-10.44,24.83-25.24,24.83h-19.99v-2.46l7.09-.75c.21-6.48,.21-13.24,.21-20.94v-2.46c0-6.75,0-13.44-.21-19.99l-7.09-.75v-2.39h21.22Zm-1.84,46.94c12.62,0,19.31-8.25,19.31-22.04s-6.69-22.1-18.56-22.1h-6.96c-.21,6.55-.21,13.37-.21,20.33v2.46c0,7.71,0,14.6,.21,21.35h6.21Z"/><path class="b" d="M523.96,247.2l-.48,12.89h-37.86v-2.46l7.09-.75c.21-6.48,.21-13.1,.21-19.79v-3.75c0-6.62,0-13.3-.21-19.85l-7.09-.75v-2.39h36.5l.48,12.83h-3.34l-1.84-9.82h-18.62c-.21,6.41-.21,13.1-.21,20.06h11.94l1.02-7.37h2.8v17.26h-2.8l-.96-7.16h-12.01c0,7.57,0,14.26,.21,20.88h19.99l1.77-9.82h3.41Z"/></g><g><path class="b" d="M35.5,350.61c-.47-2.49,1.09-6.07,2.8-9.5,2.02-3.74,4.98-8.56,8.56-13.86,5.29-7.94,11.99-17.28,19-26.78l3.11-4.05-3.27,2.96c-8.72,7.47-17.13,13.55-23.98,16.82-3.43,1.71-6.7,2.65-9.5,2.8-2.96,0-5.61-.93-7.32-3.58-3.58-5.61,3.11-13.24,10.74-17.6,5.14-2.96,11.68-5.14,18.37-5.14,3.11,0,6.07,.31,9.19,1.4l.93,.47,1.71-1.71c7.79-6.85,15.73-14.79,23.36-23.05l2.96-3.43,1.71-2.18c10.59-13.24,25.23-29.27,25.54-29.59,2.02-2.34,5.45,.47,3.74,2.8-4.98,7.01-17.75,20.87-23.98,28.18l-3.43,3.89-1.4,1.71c-5.45,6.85-11.52,14.64-17.6,22.58-9.5,12.61-19.15,25.54-26,36.13-3.58,5.14-6.38,9.81-8.25,13.39-1.71,3.27-2.34,5.14-2.49,5.92v.31h.16c.62,.47,.93,1.56,.78,2.49-.47,1.25-1.71,1.87-2.96,1.56-1.56-.47-2.34-1.71-2.49-2.96Zm23.98-52.17l.47-.31-3.27-.62c-6.54-.78-13.39,1.25-18.69,4.36-7.63,4.36-10.12,9.5-9.03,11.06,.47,.93,1.4,1.4,3.11,1.4,1.87-.16,4.52-.78,7.63-2.34,5.45-2.65,12.3-7.32,19.78-13.55Z"/><path class="b" d="M81.13,303.43c2.65-4.36,7.16-8.25,11.68-10.74,4.52-2.49,9.81-4.05,13.86-2.34l1.25,.62c1.56,1.09,1.87,2.96,1.25,4.52-2.02,4.2-17.91,13.55-24.14,10.43l-.62,1.09c-1.25,2.49-1.56,4.67-1.09,6.07,.93,2.18,3.27,3.11,6.38,3.11,8.88,0,23.98-6.7,26.78-8.25,7.01-3.58,13.39-7.63,15.57-8.88,1.25-.62,2.65-.31,3.27,.93,.62,1.09,.16,2.49-.93,3.11-1.71,1.09-8.25,5.14-15.57,8.88-5.61,2.8-19,8.56-28.96,8.56-5.14,0-9.34-1.56-10.9-5.92-1.25-3.58,0-7.79,2.18-11.21Zm7.01-1.56c2.96,1.25,12.92-4.2,16.04-7.47-6.07-.78-12.15,3.89-16.04,7.47Z"/><path class="b" d="M175.02,313.86c.62-1.09,2.02-1.56,3.11-1.09,2.96,1.56,9.5,2.49,16.04,2.49,2.34,0,4.67-.16,6.54-.47l1.4-.31-1.09-.31c-2.65-1.09-5.61-2.18-8.25-3.43-2.65-1.4-5.29-2.96-7.16-4.83-1.87-1.87-2.96-4.67-1.56-7.47,2.18-4.2,8.56-6.07,14.33-7.01,3.89-.62,8.25-.78,12.3-.78,2.34,0,4.67,0,6.7,.16,2.49,.16,2.96,3.43,.78,4.36l-2.65,1.71c-.93,.62-1.4,1.25-1.71,1.56l-.16,.31v.16c-.16,1.09-1.09,1.87-2.18,2.02-1.25,0-2.34-.93-2.49-2.18,0-.78,.16-1.25,.31-1.71l.62-1.25,.47-.47h-2.02c-3.11,.16-6.38,.31-9.34,.78-2.8,.47-5.45,1.09-7.32,1.87-2.02,.93-3.11,1.71-3.43,2.49-.31,.62-.31,1.25,.78,2.34,1.09,1.25,3.11,2.49,5.76,3.74,5.14,2.49,11.37,4.36,14.48,5.61,1.25,.62,1.71,2.34,.93,3.58-1.4,1.87-4.2,2.8-6.7,3.27-2.65,.62-6.07,.93-9.34,.93-6.54,0-14.17-.93-18.06-2.96-1.25-.62-1.71-2.02-1.09-3.11Z"/><path class="b" d="M226.72,303.43c2.65-4.36,7.16-8.25,11.68-10.74,4.52-2.49,9.81-4.05,13.86-2.34l1.25,.62c1.56,1.09,1.87,2.96,1.25,4.52-2.02,4.2-17.91,13.55-24.14,10.43l-.62,1.09c-1.25,2.49-1.56,4.67-1.09,6.07,.93,2.18,3.27,3.11,6.38,3.11,8.88,0,23.98-6.7,26.78-8.25,7.01-3.58,13.39-7.63,15.57-8.88,1.25-.62,2.65-.31,3.27,.93,.62,1.09,.16,2.49-.93,3.11-1.71,1.09-8.25,5.14-15.57,8.88-5.61,2.8-19,8.56-28.96,8.56-5.14,0-9.34-1.56-10.9-5.92-1.25-3.58,0-7.79,2.18-11.21Zm7.01-1.56c2.96,1.25,12.92-4.2,16.04-7.47-6.07-.78-12.15,3.89-16.04,7.47Z"/><path class="b" d="M283.39,292.69c.78-1.09,2.34-1.09,3.27-.31,.93,.78,1.09,2.34,.31,3.27l-5.14,6.07c7.01-3.58,24.29-11.06,31.77-9.65,2.96,.62,3.11,3.58,1.71,5.29-2.18,2.8-7.32,2.8-4.98-.62l.47-.47h-.62c-11.99,1.25-27.72,9.81-36.59,16.04-1.56,1.09-3.27,3.27-7.63,7.79-1.71,2.02-4.98,0-3.89-2.33,.47-1.4,3.27-5.45,21.33-25.07Z"/><path class="b" d="M380.25,293.15c.62-1.09,2.18-1.56,3.27-.78,1.09,.62,1.4,2.18,.62,3.27-2.96,4.83-8.1,16.19-6.85,19.93,6.23-2.18,13.7-13.08,19.31-19.93l.16-.93c.31-2.34,2.49-3.89,4.67-4.83,2.18-.78,4.05,1.87,2.65,3.58l-2.18,2.96,.16,.16c0,.16,.16,.16,.31,.31,1.87,1.25,5.45,2.34,11.37,2.34,2.18,0,4.67-.16,7.47-.47,1.25-.16,2.34,.78,2.65,2.02,.16,1.25-.78,2.49-2.02,2.65-2.8,.47-5.61,.62-7.94,.62-6.7,0-11.52-1.56-14.95-3.89-5.76,7.01-15.42,19.62-22.27,20.4-2.96,.31-4.05-3.58-4.21-5.61-.47-6.38,5.45-18.22,7.79-21.8Z"/><path class="b" d="M413.41,315.42c-.31-2.34,.47-5.14,1.71-7.79,2.8-5.45,8.25-11.52,15.42-14.79,.93-.31,1.87-.16,2.65,.31l.16,.16c.47-1.71,1.56-2.33,3.27-2.33,.47,0,.93,.16,1.56,.31,2.96,1.09,4.36,2.8,4.52,4.98v.16c4.05,1.87,8.56,2.49,13.08,2.49,4.21,0,8.56-.62,12.3-1.4,1.25-.31,2.65,.31,3.11,1.4,.31,1.25-.31,2.49-1.4,2.8-4.98,1.09-9.34,1.56-13.39,1.56-5.14,0-9.65-.78-13.86-2.02l-.16,.31c-.78,2.49-2.02,5.14-3.74,7.32-3.74,4.83-12.15,12.77-19.93,11.83-3.43-.47-5.14-2.65-5.29-5.29Zm24.76-16.04c-2.34-1.56-3.58-2.65-4.2-3.74l-.31,.47c-.31,.31-.47,.31-.78,.47-2.65,1.09-6.54,3.74-10.12,7.63-3.74,4.2-7.01,11.37-3.74,12.3,4.52,1.25,11.83-5.14,15.73-10.12,1.71-2.49,3.11-5.14,3.43-7.01Z"/><path class="b" d="M471.8,315.73c9.34-.62,18.06-4.05,25.23-7.79,7.01-3.58,12.15-7.32,14.33-8.56,1.25-.62,2.65-.31,3.27,.93,.62,1.09,.16,2.49-.93,3.11-3.74,2.18-21.33,15.57-41.58,16.97-5.76,.16-9.65-1.87-11.06-5.76-1.25-3.58,0-7.79,2.18-11.21,2.65-4.36,7.16-8.25,11.68-10.74,4.52-2.49,9.81-4.05,13.86-2.34l1.25,.62c1.56,1.09,1.87,2.96,1.25,4.52-1.25,2.65-3.74,4.2-5.61,4.98-1.71,.93-4.52-.78-2.18-2.8,.62-.62,2.02-1.87,2.96-3.58-2.49-.62-4.67,.31-8.41,2.02-5.14,2.33-14.48,11.52-12.61,16.97,.47,1.25,1.87,2.8,6.38,2.65Z"/><path class="b" d="M508.24,303.43c2.65-4.36,7.16-8.25,11.68-10.74,4.52-2.49,9.81-4.05,13.86-2.34l1.25,.62c1.56,1.09,1.87,2.96,1.25,4.52-2.02,4.2-17.91,13.55-24.14,10.43l-.62,1.09c-1.25,2.49-1.56,4.67-1.09,6.07,.93,2.18,3.27,3.11,6.38,3.11,8.88,0,23.98-6.7,26.78-8.25,7.01-3.58,13.39-7.63,15.57-8.88,1.25-.62,2.65-.31,3.27,.93,.62,1.09,.16,2.49-.93,3.11-1.71,1.09-8.25,5.14-15.57,8.88-5.61,2.8-19,8.56-28.96,8.56-5.14,0-9.34-1.56-10.9-5.92-1.25-3.58,0-7.79,2.18-11.21Zm7.01-1.56c2.96,1.25,12.92-4.2,16.04-7.47-6.07-.78-12.15,3.89-16.04,7.47Zm10.59-20.71l-.16-.16-.62,.47-.78,.62-3.11,2.18c-.78,.78-2.02,.62-2.65-.31-.62-.62-.62-1.87,.16-2.49,1.4-1.09,2.02-1.25,3.11-2.18l4.05-2.96c1.25-.62,2.65,.16,2.8,1.4,.31,1.71,1.09,2.96,2.33,4.52,.78,.78,.62,2.02-.16,2.65s-1.87,.47-2.65-.16c-.93-1.09-1.87-2.34-2.33-3.58Z"/><path class="b" d="M567.25,321.03c0-.16,0-.31,.16-.47,0-.47,.31-1.09,.47-1.4,.31-.47,.47-.93,.93-1.25,.31-.78,.93-1.4,1.09-1.87,.78-.93,2.18-1.25,3.27-.78,.93,.93,1.25,2.34,.62,3.43-.47,.31-.78,.93-1.25,1.56l-.47,1.09c0,.16-.16,.31-.31,.47,0,1.25-1.4,2.18-2.8,1.71-1.25-.16-1.87-1.25-1.71-2.49Zm11.99-21.96c.93-1.56,2.49-3.58,3.89-5.61,2.96-4.67,7.32-10.12,11.68-16.04,8.72-11.37,28.5-37.53,34.41-43.44,1.25-.93,2.65-.78,3.58,.16,.78,.78,.78,2.34,0,3.27-5.76,5.61-25.54,31.61-34.41,42.98l-11.37,15.42c-1.56,2.18-2.8,4.2-3.74,5.76-.93,1.56-1.4,2.34-1.4,2.49-.31,1.25-1.56,2.02-2.8,1.87-1.25-.47-2.02-1.71-1.71-2.96,.16-1.09,1.09-2.49,1.87-3.89Z"/></g></g><path class="c" d="M310.47,56.46s16.13-26.18,27.22-11.7c12.9,16.84-18.48,43.71-25.25,49.26,0,0-45.99-30.1-29.6-49.19,12.53-14.6,27.62,11.63,27.62,11.63Z"/></svg>