<?xml version="1.0" encoding="UTF-8"?><svg id="a" xmlns="http://www.w3.org/2000/svg" viewBox="0 0 430.18 430.18"><defs><style>.b{fill:#ff889f;}</style></defs><path class="b" d="M0,407.49c9.98-28.44,19.96-56.89,29.94-85.33,1.99-5.67,5.59-11.37,5.5-17.01-.09-5.41-4.09-10.72-6.24-16.13-23.85-59.92-22.53-119.27,7.41-176.45C68.14,52.38,118.27,15.03,185.41,3.5c73.96-12.7,137.6,9.28,189.33,63.63,30.94,32.5,48.79,71.72,53.89,116.37,6.59,57.67-7.78,109.77-44.06,155.16-33.03,41.32-75.95,66.77-128.28,75.55-44.1,7.39-86.38,1.12-126.6-18.49-2.77-1.35-5.05-1.3-7.87-.3-32.44,11.4-64.92,22.68-97.38,34-.35,.12-.61,.5-.91,.75H15.13c-7.68-2.83-12.8-8.07-15.13-15.97v-6.72Zm29.06-6.44c2.13-.68,3.33-1.04,4.51-1.45,26.39-9.23,52.92-18.09,79.1-27.87,10.42-3.89,19.22-3.15,29.18,1.73,36.75,18.02,75.54,22.82,115.67,14.92,42.19-8.3,77.28-29.22,104.71-62.22,34.92-42.01,48.27-90.6,40.75-144.56-5.46-39.16-22.29-73.28-50.37-101.15-47.09-46.76-103.8-63.77-168.85-51.15-41.77,8.1-76.11,29.67-103.28,62.26-28.22,33.85-42.13,73.17-42.22,117.18-.07,29.14,6.52,56.89,19.93,82.83,3.88,7.51,4.31,14.65,1.4,22.55-5.95,16.13-11.46,32.41-17.15,48.64-4.37,12.49-8.73,24.99-13.38,38.29Z"/><path class="b" d="M253.77,237.61c4.35-4.16,8.21-8.24,12.47-11.85,8.98-7.61,22.12-8.04,30.81-.08,11.13,10.2,21.85,20.92,32.05,32.06,7.78,8.49,7.71,21.91-.08,30.42-8.96,9.79-18.46,19.16-28.4,27.95-7,6.19-16.19,7.29-25.32,6.89-18.85-.81-35.71-8.04-51.49-17.56-43.68-26.34-78.51-61.47-103.05-106.37-7.56-13.83-13-28.49-13.57-44.55-.41-11.57,2.71-21.82,11.06-30.17,6.93-6.93,13.78-13.95,20.81-20.77,11.18-10.83,25.5-10.75,36.62,.18,8.88,8.74,17.71,17.53,26.43,26.44,10.75,10.97,10.77,25.19,.17,36.3-3.09,3.24-6.35,6.3-9.79,9.69,14.5,26.46,34.84,46.75,61.27,61.41Zm-23.55,42.26c11.99,7.83,24.75,14.16,38.91,17.2,8.74,1.88,16.59,1.19,22.63-6.64,2.63-3.41,5.98-6.29,9.16-9.23,2.84-2.63,5.89-5.01,8.5-7.21-10-10-18.88-18.89-28.31-28.31-3.56,3.7-7.26,7.68-11.1,11.52-8.12,8.12-16.16,9.09-26.22,3.69-32.22-17.3-57-41.99-74.33-74.2-5.58-10.36-4.67-18.31,3.58-26.58,3.83-3.84,7.78-7.56,11.08-10.77-9.45-9.49-18.39-18.46-27.55-27.64-5.99,6.01-12.1,12.56-18.68,18.6-4.87,4.47-6.1,9.71-5.45,15.89,1.21,11.49,5.53,21.95,11.01,31.9,20.98,38.07,50.53,68.14,86.76,91.79"/></svg>